<svg width="26" height="26" fill="none" xmlns="http://www.w3.org/2000/svg"><g clip-path="url(#clip0)"><path d="M0 0h26v26H0V0z" fill="url(#paint0_linear)"/><path d="M8.455 18.929h.002l-.877 1.52a1.16 1.16 0 01-2.008-1.16l.646-1.12.062-.107c.11-.159.384-.433.93-.382 0 0 1.287.14 1.38.808 0 0 .013.22-.135.44zm12.441-3.88h-2.735c-.186-.013-.268-.08-.3-.119l-.002-.003-2.928-5.072-.003.003-.176-.252c-.288-.44-.745.686-.745.686-.546 1.254.078 2.68.295 3.11l4.067 7.045a1.16 1.16 0 102.008-1.16l-1.017-1.76c-.02-.044-.054-.16.155-.16h1.381a1.16 1.16 0 100-2.319zm-5.313 1.575s.146.743-.419.743H5.053a1.16 1.16 0 110-2.319h2.6c.419-.024.518-.267.518-.267l.003.002 3.393-5.878a.259.259 0 000-.238l-1.12-1.941a1.16 1.16 0 012.008-1.16l.52.9.519-.898a1.16 1.16 0 012.008 1.16l-4.722 8.178c-.02.05-.027.128.127.142h2.822v.028s1.632.025 1.854 1.548z" fill="#fff"/></g><defs><linearGradient id="paint0_linear" x1="13" y1="26" x2="13" y2="0" gradientUnits="userSpaceOnUse"><stop stop-color="#1D76F2"/><stop offset="1" stop-color="#1AC2FB"/></linearGradient><clipPath id="clip0"><rect width="26" height="26" rx="13" fill="#fff"/></clipPath></defs></svg>