<svg width="24" height="26" fill="none" xmlns="http://www.w3.org/2000/svg"><path d="M17.768 8.784L2.315.296C1.55-.126.868-.08.446.331l12.955 12.686 2.457-1.135c1.276-.7 3.186-2.395 1.91-3.098z" fill="url(#paint0_linear)"/><path d="M13.37 12.985l3.172 1.937c1.275.703 2.4 1.389 1.131 2.28L2.338 25.7c-.823.451-1.53.379-1.942-.122l4.096-4.78 8.877-7.813z" fill="url(#paint1_linear)"/><path d="M23.044 11.678l-5.327-2.916-4.346 4.226 4.302 4.217 5.368-2.977c.16-.088.3-.182.42-.282a1.801 1.801 0 00.355-.395c.402-.633.145-1.368-.771-1.873z" fill="url(#paint2_linear)"/><path d="M.455.324c-.281.274-.448.71-.447 1.279l.025 22.77c0 .506.134.93.36 1.205L13.37 12.984.455.324z" fill="url(#paint3_linear)"/><path d="M23.665 12.16c.425.64.206 1.476-.784 2.003L2.198 25.63c-.796.436-1.483.268-1.903-.19.393.604 1.125.76 2.05.255L23.03 14.228c1.037-.54 1.23-1.396.636-2.069z" fill="#CCC"/><defs><linearGradient id="paint0_linear" x1=".446" y1="6.509" x2="18.189" y2="6.509" gradientUnits="userSpaceOnUse"><stop offset=".077" stop-color="#54B06A"/><stop offset=".374" stop-color="#65B362"/></linearGradient><linearGradient id="paint1_linear" x1=".396" y1="19.492" x2="18.23" y2="19.492" gradientUnits="userSpaceOnUse"><stop offset=".121" stop-color="#DF2253"/><stop offset=".451" stop-color="#E63D49"/></linearGradient><linearGradient id="paint2_linear" x1="13.371" y1="12.983" x2="24" y2="12.983" gradientUnits="userSpaceOnUse"><stop offset=".077" stop-color="#FCC40D"/><stop offset=".286" stop-color="#FDCE0F"/><stop offset=".683" stop-color="#FEE40E"/><stop offset=".769" stop-color="#FEE90F"/></linearGradient><linearGradient id="paint3_linear" x1="6.689" y1=".324" x2="6.689" y2="25.578" gradientUnits="userSpaceOnUse"><stop offset=".198" stop-color="#48BCE8"/><stop offset=".593" stop-color="#61C4E2"/></linearGradient></defs></svg>