<svg xmlns="http://www.w3.org/2000/svg" xmlns:xlink="http://www.w3.org/1999/xlink"><defs>
<linearGradient id="paint0_linear" x1="13" y1="26" x2="13" y2="0" gradientUnits="userSpaceOnUse">
<stop stop-color="#1D76F2"/>
<stop offset="1" stop-color="#1AC2FB"/>
</linearGradient>
<clipPath id="clip0">
<rect width="26" height="26" rx="13" fill="white"/>
</clipPath>

<linearGradient id="paint0_linear" x1="0.446289" y1="6.50854" x2="18.1894" y2="6.50854" gradientUnits="userSpaceOnUse">
<stop offset="0.077" stop-color="#54B06A"/>
<stop offset="0.374" stop-color="#65B362"/>
</linearGradient>
<linearGradient id="paint1_linear" x1="0.395846" y1="19.4923" x2="18.2303" y2="19.4923" gradientUnits="userSpaceOnUse">
<stop offset="0.121" stop-color="#DF2253"/>
<stop offset="0.451" stop-color="#E63D49"/>
</linearGradient>
<linearGradient id="paint2_linear" x1="13.3711" y1="12.9835" x2="23.9999" y2="12.9835" gradientUnits="userSpaceOnUse">
<stop offset="0.077" stop-color="#FCC40D"/>
<stop offset="0.286" stop-color="#FDCE0F"/>
<stop offset="0.683" stop-color="#FEE40E"/>
<stop offset="0.769" stop-color="#FEE90F"/>
</linearGradient>
<linearGradient id="paint3_linear" x1="6.68902" y1="0.324219" x2="6.68902" y2="25.5784" gradientUnits="userSpaceOnUse">
<stop offset="0.198" stop-color="#48BCE8"/>
<stop offset="0.593" stop-color="#61C4E2"/>
</linearGradient>

<filter id="filter0_d" x="0" y="0" width="154.591" height="155.651" filterUnits="userSpaceOnUse" color-interpolation-filters="sRGB">
<feFlood flood-opacity="0" result="BackgroundImageFix"/>
<feColorMatrix in="SourceAlpha" type="matrix" values="0 0 0 0 0 0 0 0 0 0 0 0 0 0 0 0 0 0 127 0"/>
<feOffset dy="11"/>
<feGaussianBlur stdDeviation="18"/>
<feColorMatrix type="matrix" values="0 0 0 0 0 0 0 0 0 0 0 0 0 0 0 0 0 0 0.56 0"/>
<feBlend mode="normal" in2="BackgroundImageFix" result="effect1_dropShadow"/>
<feBlend mode="normal" in="SourceGraphic" in2="effect1_dropShadow" result="shape"/>
</filter>
</defs><symbol id="app_store" viewBox="0 0 26 26">
<g clip-path="url(#clip0)">
<path d="M0 0H26V26H0V0Z" fill="url(#paint0_linear)"/>
<path d="M8.45495 18.9286L8.45736 18.9294L7.58019 20.4487C7.26002 21.0033 6.55083 21.1933 5.99625 20.8731C5.44169 20.5529 5.25167 19.8437 5.57184 19.2892L6.21804 18.1699L6.28004 18.0625C6.39079 17.9033 6.6641 17.6286 7.21078 17.6803C7.21078 17.6803 8.49725 17.8199 8.59033 18.4885C8.59036 18.4885 8.60305 18.7086 8.45495 18.9286ZM20.8963 15.0481H18.161C17.9747 15.0356 17.8933 14.9691 17.8614 14.9304L17.8594 14.9269L14.9312 9.85528L14.9275 9.85782L14.7518 9.60602C14.4641 9.16592 14.007 10.2916 14.007 10.2916C13.4614 11.5458 14.0845 12.9719 14.3017 13.4029L18.3687 20.4471C18.6888 21.0017 19.398 21.1917 19.9526 20.8715C20.5072 20.5514 20.6972 19.8422 20.377 19.2876L19.36 17.5261C19.3403 17.4835 19.306 17.3676 19.5146 17.3671H20.8963C21.5367 17.3671 22.0558 16.848 22.0558 16.2076C22.0558 15.5672 21.5367 15.0481 20.8963 15.0481ZM15.5834 16.6244C15.5834 16.6244 15.7294 17.3671 15.1644 17.3671H14.5995V17.3671H5.05258C4.4122 17.3671 3.89307 16.848 3.89307 16.2076C3.89307 15.5672 4.4122 15.0481 5.05258 15.0481H7.65223C8.07193 15.0238 8.17144 14.7815 8.17144 14.7815L8.17372 14.7827L11.5671 8.90508L11.5661 8.90488C11.628 8.79133 11.5765 8.68406 11.5675 8.66707L10.4468 6.72603C10.1266 6.17145 10.3167 5.46229 10.8713 5.14212C11.4258 4.82192 12.135 5.01194 12.4552 5.56652L12.9749 6.46677L13.4937 5.56812C13.8139 5.01354 14.5231 4.82352 15.0777 5.14372C15.6322 5.46392 15.8223 6.17308 15.5021 6.72763L10.78 14.9064C10.7594 14.9562 10.7531 15.0343 10.9067 15.0481H13.7292L13.7299 15.0756C13.7299 15.0756 15.3612 15.101 15.5834 16.6244Z" fill="white"/>
</g>

</symbol><symbol id="arrow-next" viewBox="0 0 54 18">
<path fill-rule="evenodd" clip-rule="evenodd" d="M36.2071 0L53.9142 17.7071H0V15.7071H49.0858L34.7929 1.41421L36.2071 0Z" fill="#323131"/>
</symbol><symbol id="arrow-up" viewBox="0 0 22 36">
<rect x="9" y="18" width="4" height="18" fill="#131313"/>
<path d="M3.46889 17L11 3.99173L18.5311 17H3.46889Z" stroke="#131313" stroke-width="4"/>
</symbol><symbol id="arrow" viewBox="0 0 14 14">
<path fill-rule="evenodd" clip-rule="evenodd" d="M3.56357 14H14V3.76821H13.1815V12.6027L0.578798 0L0 0.578798L12.6027 13.1815H3.56357V14Z" fill="#4BFF93"/>
</symbol><symbol id="big_arrow" viewBox="0 0 47 47">
<path fill-rule="evenodd" clip-rule="evenodd" d="M0 46.9998H35.3093V40.5442H11.0205L46.8284 4.73621L42.2636 0.171387L6.45563 35.9794V12.3044H0V46.9998Z" fill="white"/>
</symbol><symbol id="ip" viewBox="0 0 16 14">
<path d="M6.82096 1.18867C6.93901 0.979938 7.11036 0.806288 7.3175 0.685464C7.52465 0.564641 7.76015 0.500977 7.99996 0.500977C8.23976 0.500977 8.47527 0.564641 8.68241 0.685464C8.88955 0.806288 9.0609 0.979938 9.17896 1.18867L15.317 11.9422C15.839 12.8572 15.1835 14.0002 14.1365 14.0002H1.86496C0.817957 14.0002 0.162458 12.8572 0.684458 11.9422L6.82246 1.18717L6.82096 1.18867ZM7.24996 5.75017V7.25017C7.24996 7.44908 7.32898 7.63985 7.46963 7.7805C7.61028 7.92115 7.80105 8.00017 7.99996 8.00017C8.19887 8.00017 8.38964 7.92115 8.53029 7.7805C8.67094 7.63985 8.74996 7.44908 8.74996 7.25017V5.75017C8.74996 5.55126 8.67094 5.36049 8.53029 5.21984C8.38964 5.07919 8.19887 5.00017 7.99996 5.00017C7.80105 5.00017 7.61028 5.07919 7.46963 5.21984C7.32898 5.36049 7.24996 5.55126 7.24996 5.75017ZM7.99996 9.12517C7.70159 9.12517 7.41544 9.2437 7.20446 9.45468C6.99348 9.66565 6.87496 9.9518 6.87496 10.2502C6.87496 10.5485 6.99348 10.8347 7.20446 11.0457C7.41544 11.2566 7.70159 11.3752 7.99996 11.3752C8.29833 11.3752 8.58447 11.2566 8.79545 11.0457C9.00643 10.8347 9.12496 10.5485 9.12496 10.2502C9.12496 9.9518 9.00643 9.66565 8.79545 9.45468C8.58447 9.2437 8.29833 9.12517 7.99996 9.12517Z" fill="#D94242"/>
</symbol><symbol id="play_market" viewBox="0 0 24 26">
<path d="M17.7684 8.7844L2.31528 0.296296C1.54958 -0.125759 0.868295 -0.0807739 0.446289 0.33095L13.4007 13.0167L15.8577 11.8818C17.1345 11.182 19.0436 9.48725 17.7684 8.7844Z" fill="url(#paint0_linear)"/>
<path d="M13.3694 12.9849L16.5422 14.9221C17.8173 15.625 18.9425 16.311 17.6734 17.2025L2.33826 25.6998C1.51464 26.1512 0.808921 26.079 0.395752 25.578L4.492 20.7973L13.3694 12.9849Z" fill="url(#paint1_linear)"/>
<path d="M23.0445 11.6776L17.7172 8.76221L13.3711 12.9879L17.673 17.2047L23.0414 14.2279C23.2009 14.1404 23.3407 14.0459 23.4604 13.9462C23.5801 13.8464 23.68 13.7415 23.7599 13.6329C23.7799 13.6059 23.7986 13.5784 23.8161 13.551C24.2181 12.9177 23.9611 12.1827 23.0445 11.6776Z" fill="url(#paint2_linear)"/>
<path d="M0.45492 0.324219C0.173928 0.597878 0.00715638 1.0331 0.00781444 1.60273L0.0332908 24.3733C0.0338549 24.8794 0.166501 25.3026 0.393908 25.5783L13.3702 12.9841L0.45492 0.324219Z" fill="url(#paint3_linear)"/>
<path d="M23.6648 12.1592C24.0902 12.7996 23.871 13.6365 22.881 14.1627L2.19815 25.6313C1.40227 26.0675 0.714878 25.8988 0.29541 25.4419C0.687991 26.0448 1.41957 26.201 2.34565 25.6962L23.0285 14.2276C24.0661 13.6876 24.2585 12.8325 23.6648 12.1592Z" fill="#CCCCCC"/>

</symbol><symbol id="star" viewBox="0 0 155 156">
<g filter="url(#filter0_d)">
<path d="M77.2955 25L88.449 55.5288L118.591 66.8255L88.449 78.1222L77.2955 108.651L66.142 78.1222L36 66.8255L66.142 55.5288L77.2955 25Z" fill="#323131"/>
</g>

</symbol><symbol id="stars3" viewBox="0 0 85 13">
<path d="M6.5 0L8.25748 4.08104L12.6819 4.49139L9.34366 7.42396L10.3206 11.7586L6.5 9.49L2.6794 11.7586L3.65634 7.42396L0.318133 4.49139L4.74252 4.08104L6.5 0Z" fill="#4BFF93"/>
<path d="M24.5 0L26.2575 4.08104L30.6819 4.49139L27.3437 7.42396L28.3206 11.7586L24.5 9.49L20.6794 11.7586L21.6563 7.42396L18.3181 4.49139L22.7425 4.08104L24.5 0Z" fill="#4BFF93"/>
<path d="M42.5 0L44.2575 4.08104L48.6819 4.49139L45.3437 7.42396L46.3206 11.7586L42.5 9.49L38.6794 11.7586L39.6563 7.42396L36.3181 4.49139L40.7425 4.08104L42.5 0Z" fill="#4BFF93"/>
<path d="M60.5 0L62.2575 4.08104L66.6819 4.49139L63.3437 7.42396L64.3206 11.7586L60.5 9.49L56.6794 11.7586L57.6563 7.42396L54.3181 4.49139L58.7425 4.08104L60.5 0Z" fill="#323131"/>
<path d="M78.5 0L80.2575 4.08104L84.6819 4.49139L81.3437 7.42396L82.3206 11.7586L78.5 9.49L74.6794 11.7586L75.6563 7.42396L72.3181 4.49139L76.7425 4.08104L78.5 0Z" fill="#323131"/>
</symbol><symbol id="stars4" viewBox="0 0 85 13">
<path d="M6.5 0L8.25748 4.08104L12.6819 4.49139L9.34366 7.42396L10.3206 11.7586L6.5 9.49L2.6794 11.7586L3.65634 7.42396L0.318133 4.49139L4.74252 4.08104L6.5 0Z" fill="#4BFF93"/>
<path d="M24.5 0L26.2575 4.08104L30.6819 4.49139L27.3437 7.42396L28.3206 11.7586L24.5 9.49L20.6794 11.7586L21.6563 7.42396L18.3181 4.49139L22.7425 4.08104L24.5 0Z" fill="#4BFF93"/>
<path d="M42.5 0L44.2575 4.08104L48.6819 4.49139L45.3437 7.42396L46.3206 11.7586L42.5 9.49L38.6794 11.7586L39.6563 7.42396L36.3181 4.49139L40.7425 4.08104L42.5 0Z" fill="#4BFF93"/>
<path d="M60.5 0L62.2575 4.08104L66.6819 4.49139L63.3437 7.42396L64.3206 11.7586L60.5 9.49L56.6794 11.7586L57.6563 7.42396L54.3181 4.49139L58.7425 4.08104L60.5 0Z" fill="#4BFF93"/>
<path d="M78.5 0L80.2575 4.08104L84.6819 4.49139L81.3437 7.42396L82.3206 11.7586L78.5 9.49L74.6794 11.7586L75.6563 7.42396L72.3181 4.49139L76.7425 4.08104L78.5 0Z" fill="#323131"/>
</symbol><symbol id="stars5" viewBox="0 0 85 13">
<path d="M6.5 0L8.25748 4.08104L12.6819 4.49139L9.34366 7.42396L10.3206 11.7586L6.5 9.49L2.6794 11.7586L3.65634 7.42396L0.318133 4.49139L4.74252 4.08104L6.5 0Z" fill="#4BFF93"/>
<path d="M24.5 0L26.2575 4.08104L30.6819 4.49139L27.3437 7.42396L28.3206 11.7586L24.5 9.49L20.6794 11.7586L21.6563 7.42396L18.3181 4.49139L22.7425 4.08104L24.5 0Z" fill="#4BFF93"/>
<path d="M42.5 0L44.2575 4.08104L48.6819 4.49139L45.3437 7.42396L46.3206 11.7586L42.5 9.49L38.6794 11.7586L39.6563 7.42396L36.3181 4.49139L40.7425 4.08104L42.5 0Z" fill="#4BFF93"/>
<path d="M60.5 0L62.2575 4.08104L66.6819 4.49139L63.3437 7.42396L64.3206 11.7586L60.5 9.49L56.6794 11.7586L57.6563 7.42396L54.3181 4.49139L58.7425 4.08104L60.5 0Z" fill="#4BFF93"/>
<path d="M78.5 0L80.2575 4.08104L84.6819 4.49139L81.3437 7.42396L82.3206 11.7586L78.5 9.49L74.6794 11.7586L75.6563 7.42396L72.3181 4.49139L76.7425 4.08104L78.5 0Z" fill="#4BFF93"/>
</symbol></svg>