<svg width="85" height="13" fill="none" xmlns="http://www.w3.org/2000/svg"><path d="M6.5 0l1.757 4.081 4.425.41-3.338 2.933.977 4.335L6.5 9.49l-3.82 2.269.976-4.335L.318 4.491l4.425-.41L6.5 0zm18 0l1.758 4.081 4.424.41-3.338 2.933.977 4.335L24.5 9.49l-3.82 2.269.976-4.335-3.338-2.933 4.424-.41L24.5 0zm18 0l1.758 4.081 4.424.41-3.338 2.933.977 4.335L42.5 9.49l-3.82 2.269.976-4.335-3.338-2.933 4.425-.41L42.5 0zm18 0l1.758 4.081 4.424.41-3.338 2.933.977 4.335L60.5 9.49l-3.82 2.269.976-4.335-3.338-2.933 4.425-.41L60.5 0z" fill="#4BFF93"/><path d="M78.5 0l1.757 4.081 4.425.41-3.338 2.933.977 4.335L78.5 9.49l-3.82 2.269.976-4.335-3.338-2.933 4.425-.41L78.5 0z" fill="#323131"/></svg>